<svg xmlns="http://www.w3.org/2000/svg" width="52" height="48" viewBox="0 0 52 48" fill="none" role="img" aria-label="LLM Trading Lab">
  <rect x="5" y="6" width="1.2" height="34" rx="0.6" fill="#ef4444" opacity="0.35"/>
  <rect x="1.5" y="12" width="8" height="14" rx="1.5" fill="#ef4444" opacity="0.85"/>
  <rect x="16" y="4" width="1.2" height="32" rx="0.6" fill="#22c55e" opacity="0.4"/>
  <rect x="12.5" y="8" width="8" height="16" rx="1.5" fill="#22c55e" opacity="0.9"/>
  <rect x="27" y="10" width="1.2" height="28" rx="0.6" fill="#ef4444" opacity="0.35"/>
  <rect x="23.5" y="16" width="8" height="10" rx="1.5" fill="#ef4444" opacity="0.8"/>
  <rect x="38" y="2" width="1.2" height="36" rx="0.6" fill="#22c55e" opacity="0.45"/>
  <rect x="34.5" y="4" width="8" height="22" rx="1.5" fill="#22c55e"/>
  <rect x="0" y="43" width="44" height="0.8" rx="0.4" fill="#4a7aed" opacity="0.15"/>
  <circle cx="48" cy="12" r="1.4" fill="#4a7aed" opacity="0.6"/>
  <circle cx="48" cy="23" r="1.4" fill="#4a7aed" opacity="0.4"/>
  <circle cx="48" cy="34" r="1.4" fill="#4a7aed" opacity="0.2"/>
  <line x1="48" y1="13.4" x2="48" y2="21.6" stroke="#4a7aed" stroke-width="0.5" opacity="0.25"/>
  <line x1="48" y1="24.4" x2="48" y2="32.6" stroke="#4a7aed" stroke-width="0.5" opacity="0.15"/>
</svg>
